<svg xmlns="http://www.w3.org/2000/svg" width="519" height="158" viewBox="0 0 519 158">
  <g id="KEYBOARD_LAYOUT" data-name="KEYBOARD LAYOUT" transform="translate(-156 -216)">
    <g id="Rectángulo_12" data-name="Rectángulo 12" transform="translate(165 229)" fill="rgba(255,255,255,0.05)" stroke="#646464" stroke-linejoin="round" stroke-width="1">
      <rect width="19" height="19" stroke="none"/>
      <rect x="0.5" y="0.5" width="18" height="18" fill="none"/>
    </g>
    <g id="Rectángulo_13" data-name="Rectángulo 13" transform="translate(207 229)" fill="rgba(255,255,255,0.05)" stroke="#646464" stroke-linejoin="round" stroke-width="1">
      <rect width="19" height="19" stroke="none"/>
      <rect x="0.5" y="0.5" width="18" height="18" fill="none"/>
    </g>
    <g id="Rectángulo_14" data-name="Rectángulo 14" transform="translate(230 229)" fill="rgba(255,255,255,0.05)" stroke="#646464" stroke-linejoin="round" stroke-width="1">
      <rect width="19" height="19" stroke="none"/>
      <rect x="0.5" y="0.5" width="18" height="18" fill="none"/>
    </g>
    <g id="Rectángulo_15" data-name="Rectángulo 15" transform="translate(253 229)" fill="rgba(255,255,255,0.05)" stroke="#646464" stroke-linejoin="round" stroke-width="1">
      <rect width="20" height="19" stroke="none"/>
      <rect x="0.5" y="0.5" width="19" height="18" fill="none"/>
    </g>
    <g id="Rectángulo_16" data-name="Rectángulo 16" transform="translate(277 229)" fill="rgba(255,255,255,0.05)" stroke="#646464" stroke-linejoin="round" stroke-width="1">
      <rect width="19" height="19" stroke="none"/>
      <rect x="0.5" y="0.5" width="18" height="18" fill="none"/>
    </g>
    <g id="Rectángulo_17" data-name="Rectángulo 17" transform="translate(303 229)" fill="rgba(255,255,255,0.05)" stroke="#646464" stroke-linejoin="round" stroke-width="1">
      <rect width="20" height="19" stroke="none"/>
      <rect x="0.5" y="0.5" width="19" height="18" fill="none"/>
    </g>
    <g id="Rectángulo_18" data-name="Rectángulo 18" transform="translate(327 229)" fill="rgba(255,255,255,0.05)" stroke="#646464" stroke-linejoin="round" stroke-width="1">
      <rect width="19" height="19" stroke="none"/>
      <rect x="0.5" y="0.5" width="18" height="18" fill="none"/>
    </g>
    <g id="Rectángulo_19" data-name="Rectángulo 19" transform="translate(350 229)" fill="rgba(255,255,255,0.05)" stroke="#646464" stroke-linejoin="round" stroke-width="1">
      <rect width="20" height="19" stroke="none"/>
      <rect x="0.5" y="0.5" width="19" height="18" fill="none"/>
    </g>
    <g id="Rectángulo_20" data-name="Rectángulo 20" transform="translate(372 229)" fill="rgba(255,255,255,0.05)" stroke="#646464" stroke-linejoin="round" stroke-width="1">
      <rect width="21" height="19" stroke="none"/>
      <rect x="0.5" y="0.5" width="20" height="18" fill="none"/>
    </g>
    <g id="Rectángulo_21" data-name="Rectángulo 21" transform="translate(399 229)" fill="rgba(255,255,255,0.05)" stroke="#646464" stroke-linejoin="round" stroke-width="1">
      <rect width="20" height="19" stroke="none"/>
      <rect x="0.5" y="0.5" width="19" height="18" fill="none"/>
    </g>
    <g id="Rectángulo_22" data-name="Rectángulo 22" transform="translate(423 229)" fill="rgba(255,255,255,0.05)" stroke="#646464" stroke-linejoin="round" stroke-width="1">
      <rect width="19" height="19" stroke="none"/>
      <rect x="0.5" y="0.5" width="18" height="18" fill="none"/>
    </g>
    <g id="Rectángulo_23" data-name="Rectángulo 23" transform="translate(447 229)" fill="rgba(255,255,255,0.05)" stroke="#646464" stroke-linejoin="round" stroke-width="1">
      <rect width="19" height="19" stroke="none"/>
      <rect x="0.5" y="0.5" width="18" height="18" fill="none"/>
    </g>
    <g id="Rectángulo_24" data-name="Rectángulo 24" transform="translate(469 229)" fill="rgba(255,255,255,0.05)" stroke="#646464" stroke-linejoin="round" stroke-width="1">
      <rect width="20" height="19" stroke="none"/>
      <rect x="0.5" y="0.5" width="19" height="18" fill="none"/>
    </g>
    <g id="Rectángulo_25" data-name="Rectángulo 25" transform="translate(496 229)" fill="rgba(255,255,255,0.05)" stroke="#646464" stroke-linejoin="round" stroke-width="1">
      <rect width="20" height="19" stroke="none"/>
      <rect x="0.5" y="0.5" width="19" height="18" fill="none"/>
    </g>
    <g id="Rectángulo_26" data-name="Rectángulo 26" transform="translate(519 229)" fill="rgba(255,255,255,0.05)" stroke="#646464" stroke-linejoin="round" stroke-width="1">
      <rect width="20" height="19" stroke="none"/>
      <rect x="0.5" y="0.5" width="19" height="18" fill="none"/>
    </g>
    <g id="Rectángulo_27" data-name="Rectángulo 27" transform="translate(542 229)" fill="rgba(255,255,255,0.05)" stroke="#646464" stroke-linejoin="round" stroke-width="1">
      <rect width="19" height="19" stroke="none"/>
      <rect x="0.5" y="0.5" width="18" height="18" fill="none"/>
    </g>
    <g id="Rectángulo_28" data-name="Rectángulo 28" transform="translate(496 256)" fill="rgba(255,255,255,0.05)" stroke="#646464" stroke-linejoin="round" stroke-width="1">
      <rect width="20" height="21" stroke="none"/>
      <rect x="0.5" y="0.5" width="19" height="20" fill="none"/>
    </g>
    <g id="Rectángulo_29" data-name="Rectángulo 29" transform="translate(519 256)" fill="rgba(255,255,255,0.05)" stroke="#646464" stroke-linejoin="round" stroke-width="1">
      <rect width="20" height="21" stroke="none"/>
      <rect x="0.5" y="0.5" width="19" height="20" fill="none"/>
    </g>
    <g id="Rectángulo_30" data-name="Rectángulo 30" transform="translate(542 256)" fill="rgba(255,255,255,0.05)" stroke="#646464" stroke-linejoin="round" stroke-width="1">
      <rect width="19" height="21" stroke="none"/>
      <rect x="0.5" y="0.5" width="18" height="20" fill="none"/>
    </g>
    <g id="Rectángulo_31" data-name="Rectángulo 31" transform="translate(496 279)" fill="rgba(255,255,255,0.05)" stroke="#646464" stroke-linejoin="round" stroke-width="1">
      <rect width="20" height="20" stroke="none"/>
      <rect x="0.5" y="0.5" width="19" height="19" fill="none"/>
    </g>
    <g id="Rectángulo_32" data-name="Rectángulo 32" transform="translate(519 279)" fill="rgba(255,255,255,0.05)" stroke="#646464" stroke-linejoin="round" stroke-width="1">
      <rect width="20" height="20" stroke="none"/>
      <rect x="0.5" y="0.5" width="19" height="19" fill="none"/>
    </g>
    <g id="Rectángulo_33" data-name="Rectángulo 33" transform="translate(542 279)" fill="rgba(255,255,255,0.05)" stroke="#646464" stroke-linejoin="round" stroke-width="1">
      <rect width="19" height="20" stroke="none"/>
      <rect x="0.5" y="0.5" width="18" height="19" fill="none"/>
    </g>
    <g id="Rectángulo_34" data-name="Rectángulo 34" transform="translate(497 343)" fill="rgba(255,255,255,0.05)" stroke="#646464" stroke-linejoin="round" stroke-width="1">
      <rect width="20" height="20" stroke="none"/>
      <rect x="0.5" y="0.5" width="19" height="19" fill="none"/>
    </g>
    <g id="Rectángulo_35" data-name="Rectángulo 35" transform="translate(519 343)" fill="rgba(255,255,255,0.05)" stroke="#646464" stroke-linejoin="round" stroke-width="1">
      <rect width="20" height="20" stroke="none"/>
      <rect x="0.5" y="0.5" width="19" height="19" fill="none"/>
    </g>
    <g id="Rectángulo_36" data-name="Rectángulo 36" transform="translate(541 343)" fill="rgba(255,255,255,0.05)" stroke="#646464" stroke-linejoin="round" stroke-width="1">
      <rect width="19" height="20" stroke="none"/>
      <rect x="0.5" y="0.5" width="18" height="19" fill="none"/>
    </g>
    <g id="Rectángulo_37" data-name="Rectángulo 37" transform="translate(519 322)" fill="rgba(255,255,255,0.05)" stroke="#646464" stroke-linejoin="round" stroke-width="1">
      <rect width="20" height="19" stroke="none"/>
      <rect x="0.5" y="0.5" width="19" height="18" fill="none"/>
    </g>
    <g id="Rectángulo_38" data-name="Rectángulo 38" transform="translate(570 256)" fill="rgba(255,255,255,0.05)" stroke="#646464" stroke-linejoin="round" stroke-width="1">
      <rect width="19" height="21" stroke="none"/>
      <rect x="0.5" y="0.5" width="18" height="20" fill="none"/>
    </g>
    <g id="Rectángulo_39" data-name="Rectángulo 39" transform="translate(592 256)" fill="rgba(255,255,255,0.05)" stroke="#646464" stroke-linejoin="round" stroke-width="1">
      <rect width="19" height="21" stroke="none"/>
      <rect x="0.5" y="0.5" width="18" height="20" fill="none"/>
    </g>
    <g id="Rectángulo_40" data-name="Rectángulo 40" transform="translate(616 256)" fill="rgba(255,255,255,0.05)" stroke="#646464" stroke-linejoin="round" stroke-width="1">
      <rect width="20" height="21" stroke="none"/>
      <rect x="0.5" y="0.5" width="19" height="20" fill="none"/>
    </g>
    <g id="Rectángulo_41" data-name="Rectángulo 41" transform="translate(570 279)" fill="rgba(255,255,255,0.05)" stroke="#646464" stroke-linejoin="round" stroke-width="1">
      <rect width="19" height="20" stroke="none"/>
      <rect x="0.5" y="0.5" width="18" height="19" fill="none"/>
    </g>
    <g id="Rectángulo_42" data-name="Rectángulo 42" transform="translate(592 279)" fill="rgba(255,255,255,0.05)" stroke="#646464" stroke-linejoin="round" stroke-width="1">
      <rect width="19" height="20" stroke="none"/>
      <rect x="0.5" y="0.5" width="18" height="19" fill="none"/>
    </g>
    <g id="Rectángulo_43" data-name="Rectángulo 43" transform="translate(616 279)" fill="rgba(255,255,255,0.05)" stroke="#646464" stroke-linejoin="round" stroke-width="1">
      <rect width="20" height="20" stroke="none"/>
      <rect x="0.5" y="0.5" width="19" height="19" fill="none"/>
    </g>
    <g id="Rectángulo_44" data-name="Rectángulo 44" transform="translate(570 301)" fill="rgba(255,255,255,0.05)" stroke="#646464" stroke-linejoin="round" stroke-width="1">
      <rect width="19" height="19" stroke="none"/>
      <rect x="0.5" y="0.5" width="18" height="18" fill="none"/>
    </g>
    <g id="Rectángulo_45" data-name="Rectángulo 45" transform="translate(592 301)" fill="rgba(255,255,255,0.05)" stroke="#646464" stroke-linejoin="round" stroke-width="1">
      <rect width="19" height="19" stroke="none"/>
      <rect x="0.5" y="0.5" width="18" height="18" fill="none"/>
    </g>
    <g id="Rectángulo_46" data-name="Rectángulo 46" transform="translate(616 301)" fill="rgba(255,255,255,0.05)" stroke="#646464" stroke-linejoin="round" stroke-width="1">
      <rect width="20" height="19" stroke="none"/>
      <rect x="0.5" y="0.5" width="19" height="18" fill="none"/>
    </g>
    <g id="Rectángulo_47" data-name="Rectángulo 47" transform="translate(570 322)" fill="rgba(255,255,255,0.05)" stroke="#646464" stroke-linejoin="round" stroke-width="1">
      <rect width="19" height="19" stroke="none"/>
      <rect x="0.5" y="0.5" width="18" height="18" fill="none"/>
    </g>
    <g id="Rectángulo_48" data-name="Rectángulo 48" transform="translate(592 322)" fill="rgba(255,255,255,0.05)" stroke="#646464" stroke-linejoin="round" stroke-width="1">
      <rect width="19" height="19" stroke="none"/>
      <rect x="0.5" y="0.5" width="18" height="18" fill="none"/>
    </g>
    <g id="Rectángulo_49" data-name="Rectángulo 49" transform="translate(616 322)" fill="rgba(255,255,255,0.05)" stroke="#646464" stroke-linejoin="round" stroke-width="1">
      <rect width="20" height="19" stroke="none"/>
      <rect x="0.5" y="0.5" width="19" height="18" fill="none"/>
    </g>
    <g id="Rectángulo_50" data-name="Rectángulo 50" transform="translate(640 256)" fill="rgba(255,255,255,0.05)" stroke="#646464" stroke-linejoin="round" stroke-width="1">
      <rect width="19" height="21" stroke="none"/>
      <rect x="0.5" y="0.5" width="18" height="20" fill="none"/>
    </g>
    <g id="Rectángulo_51" data-name="Rectángulo 51" transform="translate(640 279)" fill="rgba(255,255,255,0.05)" stroke="#646464" stroke-linejoin="round" stroke-width="1">
      <rect width="19" height="41" stroke="none"/>
      <rect x="0.5" y="0.5" width="18" height="40" fill="none"/>
    </g>
    <g id="Rectángulo_52" data-name="Rectángulo 52" transform="translate(640 322)" fill="rgba(255,255,255,0.05)" stroke="#646464" stroke-linejoin="round" stroke-width="1">
      <rect width="19" height="42" stroke="none"/>
      <rect x="0.5" y="0.5" width="18" height="41" fill="none"/>
    </g>
    <g id="Rectángulo_53" data-name="Rectángulo 53" transform="translate(616 345)" fill="rgba(255,255,255,0.05)" stroke="#646464" stroke-linejoin="round" stroke-width="1">
      <rect width="20" height="19" stroke="none"/>
      <rect x="0.5" y="0.5" width="19" height="18" fill="none"/>
    </g>
    <g id="Rectángulo_54" data-name="Rectángulo 54" transform="translate(570 345)" fill="rgba(255,255,255,0.05)" stroke="#646464" stroke-linejoin="round" stroke-width="1">
      <rect width="41" height="19" stroke="none"/>
      <rect x="0.5" y="0.5" width="40" height="18" fill="none"/>
    </g>
    <g id="Rectángulo_55" data-name="Rectángulo 55" transform="translate(165 257)" fill="rgba(255,255,255,0.05)" stroke="#646464" stroke-linejoin="round" stroke-width="1">
      <rect width="19" height="19" stroke="none"/>
      <rect x="0.5" y="0.5" width="18" height="18" fill="none"/>
    </g>
    <g id="Rectángulo_56" data-name="Rectángulo 56" transform="translate(186 257)" fill="rgba(255,255,255,0.05)" stroke="#646464" stroke-linejoin="round" stroke-width="1">
      <rect width="19" height="19" stroke="none"/>
      <rect x="0.5" y="0.5" width="18" height="18" fill="none"/>
    </g>
    <g id="Rectángulo_57" data-name="Rectángulo 57" transform="translate(207 257)" fill="rgba(255,255,255,0.05)" stroke="#646464" stroke-linejoin="round" stroke-width="1">
      <rect width="20" height="19" stroke="none"/>
      <rect x="0.5" y="0.5" width="19" height="18" fill="none"/>
    </g>
    <g id="Rectángulo_58" data-name="Rectángulo 58" transform="translate(229 257)" fill="rgba(255,255,255,0.05)" stroke="#646464" stroke-linejoin="round" stroke-width="1">
      <rect width="19" height="19" stroke="none"/>
      <rect x="0.5" y="0.5" width="18" height="18" fill="none"/>
    </g>
    <g id="Rectángulo_59" data-name="Rectángulo 59" transform="translate(250 257)" fill="rgba(255,255,255,0.05)" stroke="#646464" stroke-linejoin="round" stroke-width="1">
      <rect width="19" height="19" stroke="none"/>
      <rect x="0.5" y="0.5" width="18" height="18" fill="none"/>
    </g>
    <g id="Rectángulo_60" data-name="Rectángulo 60" transform="translate(271 257)" fill="rgba(255,255,255,0.05)" stroke="#646464" stroke-linejoin="round" stroke-width="1">
      <rect width="19" height="19" stroke="none"/>
      <rect x="0.5" y="0.5" width="18" height="18" fill="none"/>
    </g>
    <g id="Rectángulo_61" data-name="Rectángulo 61" transform="translate(292 257)" fill="rgba(255,255,255,0.05)" stroke="#646464" stroke-linejoin="round" stroke-width="1">
      <rect width="20" height="19" stroke="none"/>
      <rect x="0.5" y="0.5" width="19" height="18" fill="none"/>
    </g>
    <g id="Rectángulo_62" data-name="Rectángulo 62" transform="translate(314 257)" fill="rgba(255,255,255,0.05)" stroke="#646464" stroke-linejoin="round" stroke-width="1">
      <rect width="19" height="19" stroke="none"/>
      <rect x="0.5" y="0.5" width="18" height="18" fill="none"/>
    </g>
    <g id="Rectángulo_63" data-name="Rectángulo 63" transform="translate(335 257)" fill="rgba(255,255,255,0.05)" stroke="#646464" stroke-linejoin="round" stroke-width="1">
      <rect width="19" height="19" stroke="none"/>
      <rect x="0.5" y="0.5" width="18" height="18" fill="none"/>
    </g>
    <g id="Rectángulo_64" data-name="Rectángulo 64" transform="translate(356 257)" fill="rgba(255,255,255,0.05)" stroke="#646464" stroke-linejoin="round" stroke-width="1">
      <rect width="19" height="19" stroke="none"/>
      <rect x="0.5" y="0.5" width="18" height="18" fill="none"/>
    </g>
    <g id="Rectángulo_65" data-name="Rectángulo 65" transform="translate(377 257)" fill="rgba(255,255,255,0.05)" stroke="#646464" stroke-linejoin="round" stroke-width="1">
      <rect width="20" height="19" stroke="none"/>
      <rect x="0.5" y="0.5" width="19" height="18" fill="none"/>
    </g>
    <g id="Rectángulo_66" data-name="Rectángulo 66" transform="translate(399 257)" fill="rgba(255,255,255,0.05)" stroke="#646464" stroke-linejoin="round" stroke-width="1">
      <rect width="19" height="19" stroke="none"/>
      <rect x="0.5" y="0.5" width="18" height="18" fill="none"/>
    </g>
    <g id="Rectángulo_67" data-name="Rectángulo 67" transform="translate(420 257)" fill="rgba(255,255,255,0.05)" stroke="#646464" stroke-linejoin="round" stroke-width="1">
      <rect width="19" height="19" stroke="none"/>
      <rect x="0.5" y="0.5" width="18" height="18" fill="none"/>
    </g>
    <g id="Rectángulo_68" data-name="Rectángulo 68" transform="translate(441 257)" fill="rgba(255,255,255,0.05)" stroke="#646464" stroke-linejoin="round" stroke-width="1">
      <rect width="48" height="19" stroke="none"/>
      <rect x="0.5" y="0.5" width="47" height="18" fill="none"/>
    </g>
    <g id="Rectángulo_69" data-name="Rectángulo 69" transform="translate(165 278)" fill="rgba(255,255,255,0.05)" stroke="#646464" stroke-linejoin="round" stroke-width="1">
      <rect width="31" height="19" stroke="none"/>
      <rect x="0.5" y="0.5" width="30" height="18" fill="none"/>
    </g>
    <g id="Rectángulo_70" data-name="Rectángulo 70" transform="translate(198 278)" fill="rgba(255,255,255,0.05)" stroke="#646464" stroke-linejoin="round" stroke-width="1">
      <rect width="19" height="19" stroke="none"/>
      <rect x="0.5" y="0.5" width="18" height="18" fill="none"/>
    </g>
    <g id="Rectángulo_71" data-name="Rectángulo 71" transform="translate(219 278)" fill="rgba(255,255,255,0.05)" stroke="#646464" stroke-linejoin="round" stroke-width="1">
      <rect width="19" height="19" stroke="none"/>
      <rect x="0.5" y="0.5" width="18" height="18" fill="none"/>
    </g>
    <g id="Rectángulo_72" data-name="Rectángulo 72" transform="translate(240 278)" fill="rgba(255,255,255,0.05)" stroke="#646464" stroke-linejoin="round" stroke-width="1">
      <rect width="19" height="19" stroke="none"/>
      <rect x="0.5" y="0.5" width="18" height="18" fill="none"/>
    </g>
    <g id="Rectángulo_73" data-name="Rectángulo 73" transform="translate(261 278)" fill="rgba(255,255,255,0.05)" stroke="#646464" stroke-linejoin="round" stroke-width="1">
      <rect width="19" height="19" stroke="none"/>
      <rect x="0.5" y="0.5" width="18" height="18" fill="none"/>
    </g>
    <g id="Rectángulo_74" data-name="Rectángulo 74" transform="translate(282 278)" fill="rgba(255,255,255,0.05)" stroke="#646464" stroke-linejoin="round" stroke-width="1">
      <rect width="19" height="19" stroke="none"/>
      <rect x="0.5" y="0.5" width="18" height="18" fill="none"/>
    </g>
    <g id="Rectángulo_75" data-name="Rectángulo 75" transform="translate(303 278)" fill="rgba(255,255,255,0.05)" stroke="#646464" stroke-linejoin="round" stroke-width="1">
      <rect width="19" height="19" stroke="none"/>
      <rect x="0.5" y="0.5" width="18" height="18" fill="none"/>
    </g>
    <g id="Rectángulo_76" data-name="Rectángulo 76" transform="translate(324 278)" fill="rgba(255,255,255,0.05)" stroke="#646464" stroke-linejoin="round" stroke-width="1">
      <rect width="19" height="19" stroke="none"/>
      <rect x="0.5" y="0.5" width="18" height="18" fill="none"/>
    </g>
    <g id="Rectángulo_77" data-name="Rectángulo 77" transform="translate(345 278)" fill="rgba(255,255,255,0.05)" stroke="#646464" stroke-linejoin="round" stroke-width="1">
      <rect width="19" height="19" stroke="none"/>
      <rect x="0.5" y="0.5" width="18" height="18" fill="none"/>
    </g>
    <g id="Rectángulo_78" data-name="Rectángulo 78" transform="translate(366 278)" fill="rgba(255,255,255,0.05)" stroke="#646464" stroke-linejoin="round" stroke-width="1">
      <rect width="19" height="19" stroke="none"/>
      <rect x="0.5" y="0.5" width="18" height="18" fill="none"/>
    </g>
    <g id="Rectángulo_79" data-name="Rectángulo 79" transform="translate(387 278)" fill="rgba(255,255,255,0.05)" stroke="#646464" stroke-linejoin="round" stroke-width="1">
      <rect width="19" height="19" stroke="none"/>
      <rect x="0.5" y="0.5" width="18" height="18" fill="none"/>
    </g>
    <g id="Rectángulo_80" data-name="Rectángulo 80" transform="translate(408 278)" fill="rgba(255,255,255,0.05)" stroke="#646464" stroke-linejoin="round" stroke-width="1">
      <rect width="19" height="19" stroke="none"/>
      <rect x="0.5" y="0.5" width="18" height="18" fill="none"/>
    </g>
    <g id="Rectángulo_81" data-name="Rectángulo 81" transform="translate(429 278)" fill="rgba(255,255,255,0.05)" stroke="#646464" stroke-linejoin="round" stroke-width="1">
      <rect width="19" height="19" stroke="none"/>
      <rect x="0.5" y="0.5" width="18" height="18" fill="none"/>
    </g>
    <g id="Rectángulo_82" data-name="Rectángulo 82" transform="translate(450 278)" fill="rgba(255,255,255,0.05)" stroke="#646464" stroke-linejoin="round" stroke-width="1">
      <rect width="39" height="19" stroke="none"/>
      <rect x="0.5" y="0.5" width="38" height="18" fill="none"/>
    </g>
    <g id="Rectángulo_83" data-name="Rectángulo 83" transform="translate(165 299)" fill="rgba(255,255,255,0.05)" stroke="#646464" stroke-linejoin="round" stroke-width="1">
      <rect width="36" height="19" stroke="none"/>
      <rect x="0.5" y="0.5" width="35" height="18" fill="none"/>
    </g>
    <g id="Rectángulo_84" data-name="Rectángulo 84" transform="translate(203 299)" fill="rgba(255,255,255,0.05)" stroke="#646464" stroke-linejoin="round" stroke-width="1">
      <rect width="19" height="19" stroke="none"/>
      <rect x="0.5" y="0.5" width="18" height="18" fill="none"/>
    </g>
    <g id="Rectángulo_85" data-name="Rectángulo 85" transform="translate(224 299)" fill="rgba(255,255,255,0.05)" stroke="#646464" stroke-linejoin="round" stroke-width="1">
      <rect width="19" height="19" stroke="none"/>
      <rect x="0.5" y="0.5" width="18" height="18" fill="none"/>
    </g>
    <g id="Rectángulo_86" data-name="Rectángulo 86" transform="translate(245 299)" fill="rgba(255,255,255,0.05)" stroke="#646464" stroke-linejoin="round" stroke-width="1">
      <rect width="19" height="19" stroke="none"/>
      <rect x="0.5" y="0.5" width="18" height="18" fill="none"/>
    </g>
    <g id="Rectángulo_87" data-name="Rectángulo 87" transform="translate(266 299)" fill="rgba(255,255,255,0.05)" stroke="#646464" stroke-linejoin="round" stroke-width="1">
      <rect width="19" height="19" stroke="none"/>
      <rect x="0.5" y="0.5" width="18" height="18" fill="none"/>
    </g>
    <g id="Rectángulo_88" data-name="Rectángulo 88" transform="translate(287 299)" fill="rgba(255,255,255,0.05)" stroke="#646464" stroke-linejoin="round" stroke-width="1">
      <rect width="19" height="19" stroke="none"/>
      <rect x="0.5" y="0.5" width="18" height="18" fill="none"/>
    </g>
    <g id="Rectángulo_89" data-name="Rectángulo 89" transform="translate(308 299)" fill="rgba(255,255,255,0.05)" stroke="#646464" stroke-linejoin="round" stroke-width="1">
      <rect width="19" height="19" stroke="none"/>
      <rect x="0.5" y="0.5" width="18" height="18" fill="none"/>
    </g>
    <g id="Rectángulo_90" data-name="Rectángulo 90" transform="translate(329 299)" fill="rgba(255,255,255,0.05)" stroke="#646464" stroke-linejoin="round" stroke-width="1">
      <rect width="19" height="19" stroke="none"/>
      <rect x="0.5" y="0.5" width="18" height="18" fill="none"/>
    </g>
    <g id="Rectángulo_91" data-name="Rectángulo 91" transform="translate(350 299)" fill="rgba(255,255,255,0.05)" stroke="#646464" stroke-linejoin="round" stroke-width="1">
      <rect width="19" height="19" stroke="none"/>
      <rect x="0.5" y="0.5" width="18" height="18" fill="none"/>
    </g>
    <g id="Rectángulo_92" data-name="Rectángulo 92" transform="translate(371 299)" fill="rgba(255,255,255,0.05)" stroke="#646464" stroke-linejoin="round" stroke-width="1">
      <rect width="19" height="19" stroke="none"/>
      <rect x="0.5" y="0.5" width="18" height="18" fill="none"/>
    </g>
    <g id="Rectángulo_93" data-name="Rectángulo 93" transform="translate(392 299)" fill="rgba(255,255,255,0.05)" stroke="#646464" stroke-linejoin="round" stroke-width="1">
      <rect width="19" height="19" stroke="none"/>
      <rect x="0.5" y="0.5" width="18" height="18" fill="none"/>
    </g>
    <g id="Rectángulo_94" data-name="Rectángulo 94" transform="translate(413 299)" fill="rgba(255,255,255,0.05)" stroke="#646464" stroke-linejoin="round" stroke-width="1">
      <rect width="19" height="19" stroke="none"/>
      <rect x="0.5" y="0.5" width="18" height="18" fill="none"/>
    </g>
    <g id="Rectángulo_95" data-name="Rectángulo 95" transform="translate(434 299)" fill="rgba(255,255,255,0.05)" stroke="#646464" stroke-linejoin="round" stroke-width="1">
      <rect width="55" height="19" stroke="none"/>
      <rect x="0.5" y="0.5" width="54" height="18" fill="none"/>
    </g>
    <g id="Rectángulo_96" data-name="Rectángulo 96" transform="translate(165 320)" fill="rgba(255,255,255,0.05)" stroke="#646464" stroke-linejoin="round" stroke-width="1">
      <rect width="50" height="19" stroke="none"/>
      <rect x="0.5" y="0.5" width="49" height="18" fill="none"/>
    </g>
    <g id="Rectángulo_97" data-name="Rectángulo 97" transform="translate(217 320)" fill="rgba(255,255,255,0.05)" stroke="#646464" stroke-linejoin="round" stroke-width="1">
      <rect width="19" height="19" stroke="none"/>
      <rect x="0.5" y="0.5" width="18" height="18" fill="none"/>
    </g>
    <g id="Rectángulo_98" data-name="Rectángulo 98" transform="translate(238 320)" fill="rgba(255,255,255,0.05)" stroke="#646464" stroke-linejoin="round" stroke-width="1">
      <rect width="19" height="19" stroke="none"/>
      <rect x="0.5" y="0.5" width="18" height="18" fill="none"/>
    </g>
    <g id="Rectángulo_99" data-name="Rectángulo 99" transform="translate(259 320)" fill="rgba(255,255,255,0.05)" stroke="#646464" stroke-linejoin="round" stroke-width="1">
      <rect width="19" height="19" stroke="none"/>
      <rect x="0.5" y="0.5" width="18" height="18" fill="none"/>
    </g>
    <g id="Rectángulo_100" data-name="Rectángulo 100" transform="translate(280 320)" fill="rgba(255,255,255,0.05)" stroke="#646464" stroke-linejoin="round" stroke-width="1">
      <rect width="19" height="19" stroke="none"/>
      <rect x="0.5" y="0.5" width="18" height="18" fill="none"/>
    </g>
    <g id="Rectángulo_101" data-name="Rectángulo 101" transform="translate(301 320)" fill="rgba(255,255,255,0.05)" stroke="#646464" stroke-linejoin="round" stroke-width="1">
      <rect width="19" height="19" stroke="none"/>
      <rect x="0.5" y="0.5" width="18" height="18" fill="none"/>
    </g>
    <g id="Rectángulo_102" data-name="Rectángulo 102" transform="translate(322 320)" fill="rgba(255,255,255,0.05)" stroke="#646464" stroke-linejoin="round" stroke-width="1">
      <rect width="19" height="19" stroke="none"/>
      <rect x="0.5" y="0.5" width="18" height="18" fill="none"/>
    </g>
    <g id="Rectángulo_103" data-name="Rectángulo 103" transform="translate(343 320)" fill="rgba(255,255,255,0.05)" stroke="#646464" stroke-linejoin="round" stroke-width="1">
      <rect width="19" height="19" stroke="none"/>
      <rect x="0.5" y="0.5" width="18" height="18" fill="none"/>
    </g>
    <g id="Rectángulo_104" data-name="Rectángulo 104" transform="translate(364 320)" fill="rgba(255,255,255,0.05)" stroke="#646464" stroke-linejoin="round" stroke-width="1">
      <rect width="19" height="19" stroke="none"/>
      <rect x="0.5" y="0.5" width="18" height="18" fill="none"/>
    </g>
    <g id="Rectángulo_105" data-name="Rectángulo 105" transform="translate(385 320)" fill="rgba(255,255,255,0.05)" stroke="#646464" stroke-linejoin="round" stroke-width="1">
      <rect width="19" height="19" stroke="none"/>
      <rect x="0.5" y="0.5" width="18" height="18" fill="none"/>
    </g>
    <g id="Rectángulo_106" data-name="Rectángulo 106" transform="translate(406 320)" fill="rgba(255,255,255,0.05)" stroke="#646464" stroke-linejoin="round" stroke-width="1">
      <rect width="19" height="19" stroke="none"/>
      <rect x="0.5" y="0.5" width="18" height="18" fill="none"/>
    </g>
    <g id="Rectángulo_107" data-name="Rectángulo 107" transform="translate(427 320)" fill="rgba(255,255,255,0.05)" stroke="#646464" stroke-linejoin="round" stroke-width="1">
      <rect width="62" height="19" stroke="none"/>
      <rect x="0.5" y="0.5" width="61" height="18" fill="none"/>
    </g>
    <g id="Rectángulo_108" data-name="Rectángulo 108" transform="translate(165 341)" fill="rgba(255,255,255,0.05)" stroke="#646464" stroke-linejoin="round" stroke-width="1">
      <rect width="31" height="19" stroke="none"/>
      <rect x="0.5" y="0.5" width="30" height="18" fill="none"/>
    </g>
    <g id="Rectángulo_109" data-name="Rectángulo 109" transform="translate(198 341)" fill="rgba(255,255,255,0.05)" stroke="#646464" stroke-linejoin="round" stroke-width="1">
      <rect width="19" height="19" stroke="none"/>
      <rect x="0.5" y="0.5" width="18" height="18" fill="none"/>
    </g>
    <g id="Rectángulo_110" data-name="Rectángulo 110" transform="translate(219 341)" fill="rgba(255,255,255,0.05)" stroke="#646464" stroke-linejoin="round" stroke-width="1">
      <rect width="31" height="19" stroke="none"/>
      <rect x="0.5" y="0.5" width="30" height="18" fill="none"/>
    </g>
    <g id="Rectángulo_111" data-name="Rectángulo 111" transform="translate(252 341)" fill="rgba(255,255,255,0.05)" stroke="#646464" stroke-linejoin="round" stroke-width="1">
      <rect width="129" height="19" stroke="none"/>
      <rect x="0.5" y="0.5" width="128" height="18" fill="none"/>
    </g>
    <g id="Rectángulo_112" data-name="Rectángulo 112" transform="translate(383 341)" fill="rgba(255,255,255,0.05)" stroke="#646464" stroke-linejoin="round" stroke-width="1">
      <rect width="31" height="19" stroke="none"/>
      <rect x="0.5" y="0.5" width="30" height="18" fill="none"/>
    </g>
    <g id="Rectángulo_113" data-name="Rectángulo 113" transform="translate(416 341)" fill="rgba(255,255,255,0.05)" stroke="#646464" stroke-linejoin="round" stroke-width="1">
      <rect width="19" height="19" stroke="none"/>
      <rect x="0.5" y="0.5" width="18" height="18" fill="none"/>
    </g>
    <g id="Rectángulo_114" data-name="Rectángulo 114" transform="translate(437 341)" fill="rgba(255,255,255,0.05)" stroke="#646464" stroke-linejoin="round" stroke-width="1">
      <rect width="19" height="19" stroke="none"/>
      <rect x="0.5" y="0.5" width="18" height="18" fill="none"/>
    </g>
    <g id="Rectángulo_115" data-name="Rectángulo 115" transform="translate(458 341)" fill="rgba(255,255,255,0.05)" stroke="#646464" stroke-linejoin="round" stroke-width="1">
      <rect width="31" height="19" stroke="none"/>
      <rect x="0.5" y="0.5" width="30" height="18" fill="none"/>
    </g>
    <g id="Elipse_2" data-name="Elipse 2" transform="translate(570 229)" fill="rgba(255,255,255,0.05)" stroke="#646464" stroke-width="1">
      <circle cx="10" cy="10" r="10" stroke="none"/>
      <circle cx="10" cy="10" r="9.5" fill="none"/>
    </g>
    <g id="Elipse_3" data-name="Elipse 3" transform="translate(592 229)" fill="rgba(255,255,255,0.05)" stroke="#646464" stroke-width="1">
      <circle cx="10" cy="10" r="10" stroke="none"/>
      <circle cx="10" cy="10" r="9.5" fill="none"/>
    </g>
    <g id="Elipse_4" data-name="Elipse 4" transform="translate(614 229)" fill="rgba(255,255,255,0.05)" stroke="#646464" stroke-width="1">
      <circle cx="10" cy="10" r="10" stroke="none"/>
      <circle cx="10" cy="10" r="9.5" fill="none"/>
    </g>
    <g id="Elipse_5" data-name="Elipse 5" transform="translate(637 223)" fill="rgba(255,255,255,0.05)" stroke="#646464" stroke-width="1">
      <circle cx="15" cy="15" r="15" stroke="none"/>
      <circle cx="15" cy="15" r="14.5" fill="none"/>
    </g>
    <g id="rectangleOutside" transform="translate(156 216)" fill="none" stroke="#707070" stroke-width="1">
      <rect width="519" height="158" stroke="none"/>
      <rect x="0.5" y="0.5" width="518" height="157" fill="none"/>
    </g>
  </g>
</svg>
